<svg width="109" height="29" viewBox="0 0 109 29" fill="none" xmlns="http://www.w3.org/2000/svg">
<path d="M46.741 23.157V8.21023H49.4695V20.7495H55.8695V23.157H46.741ZM62.7504 23.3977C61.6804 23.3977 60.704 23.1503 59.8213 22.6554C58.9519 22.1605 58.2564 21.4851 57.7347 20.6291C57.2265 19.7731 56.9723 18.7967 56.9723 17.6999C56.9723 16.6031 57.2265 15.6268 57.7347 14.7707C58.2564 13.9147 58.9519 13.2393 59.8213 12.7444C60.6906 12.2495 61.667 12.0021 62.7504 12.0021C63.8204 12.0021 64.7901 12.2495 65.6595 12.7444C66.5289 13.2393 67.2177 13.9147 67.726 14.7707C68.2476 15.6134 68.5084 16.5898 68.5084 17.6999C68.5084 18.7967 68.2476 19.7731 67.726 20.6291C67.2044 21.4851 66.5088 22.1605 65.6395 22.6554C64.7701 23.1503 63.8071 23.3977 62.7504 23.3977ZM62.7504 20.9902C63.3389 20.9902 63.8539 20.8498 64.2953 20.5689C64.75 20.288 65.1045 19.9001 65.3586 19.4052C65.6261 18.897 65.7598 18.3285 65.7598 17.6999C65.7598 17.0579 65.6261 16.4961 65.3586 16.0146C65.1045 15.5198 64.75 15.1319 64.2953 14.851C63.8539 14.5567 63.3389 14.4096 62.7504 14.4096C62.1485 14.4096 61.6202 14.5567 61.1655 14.851C60.7107 15.1319 60.3496 15.5198 60.0821 16.0146C59.8279 16.4961 59.7009 17.0579 59.7009 17.6999C59.7009 18.3285 59.8279 18.897 60.0821 19.4052C60.3496 19.9001 60.7107 20.288 61.1655 20.5689C61.6202 20.8498 62.1485 20.9902 62.7504 20.9902ZM73.0542 23.157L69.3025 12.2428H72.0711L74.8197 20.5288L73.8567 20.5087L76.7859 12.2428H79.1132L82.0223 20.5087L81.0593 20.5288L83.8079 12.2428H86.5765L82.8248 23.157H80.4774L77.5081 14.5099H78.3909L75.3815 23.157H73.0542ZM89.2812 23.157V14.5902H87.3552V12.2428H89.2812V11.8817C89.2812 11.0525 89.4484 10.3503 89.7828 9.77512C90.1305 9.18661 90.6121 8.73855 91.2273 8.43092C91.8426 8.12329 92.5715 7.96947 93.4142 7.96947C93.5747 7.96947 93.7485 7.98285 93.9358 8.0096C94.1364 8.02298 94.3036 8.04304 94.4374 8.06979V10.3369C94.3036 10.3101 94.1765 10.2968 94.0562 10.2968C93.9492 10.2834 93.8488 10.2767 93.7552 10.2767C93.1667 10.2767 92.712 10.4104 92.391 10.6779C92.0699 10.9321 91.9094 11.3333 91.9094 11.8817V12.2428H96.6844V14.5902H91.9094V23.157H89.2812ZM95.7013 23.157V12.2428H98.3496V23.157H95.7013ZM105.512 23.2774C104.282 23.2774 103.326 22.943 102.643 22.2742C101.975 21.5921 101.64 20.6358 101.64 19.4052V14.5902H99.7545V12.2428H99.9551C100.49 12.2428 100.905 12.1024 101.199 11.8215C101.493 11.5406 101.64 11.1327 101.64 10.5977V9.75506H104.269V12.2428H106.776V14.5902H104.269V19.2648C104.269 19.6259 104.329 19.9336 104.449 20.1877C104.583 20.4418 104.784 20.6358 105.051 20.7695C105.332 20.9033 105.686 20.9701 106.114 20.9701C106.208 20.9701 106.315 20.9635 106.435 20.9501C106.569 20.9367 106.696 20.9233 106.817 20.91V23.157C106.629 23.1837 106.415 23.2105 106.175 23.2372C105.934 23.264 105.713 23.2774 105.512 23.2774Z" fill="white"/>
<mask id="path-2-inside-1_507_38" fill="white">
<path d="M19.9082 19.7846C19.9082 19.7846 23.6971 15.9957 28.3709 11.3218C33.0448 6.64799 36.8337 2.85908 36.8337 2.85908C41.5075 7.53293 41.5075 15.1107 36.8337 19.7846C32.1598 24.4584 24.582 24.4584 19.9082 19.7846Z"/>
</mask>
<path d="M19.9082 19.7846C19.9082 19.7846 23.6971 15.9957 28.3709 11.3218C33.0448 6.64799 36.8337 2.85908 36.8337 2.85908C41.5075 7.53293 41.5075 15.1107 36.8337 19.7846C32.1598 24.4584 24.582 24.4584 19.9082 19.7846Z" fill="black" stroke="#6D6DFF" stroke-width="17.2558" mask="url(#path-2-inside-1_507_38)"/>
<mask id="path-3-inside-2_507_38" fill="white">
<path d="M25.3883 8.46278C25.3883 8.46278 21.5994 12.2517 16.9255 16.9255C12.2517 21.5994 8.46276 25.3883 8.46276 25.3883C3.7889 20.7144 3.78891 13.1366 8.46276 8.46278C13.1366 3.78893 20.7144 3.78893 25.3883 8.46278Z"/>
</mask>
<path d="M25.3883 8.46278C25.3883 8.46278 21.5994 12.2517 16.9255 16.9255C12.2517 21.5994 8.46276 25.3883 8.46276 25.3883C3.7889 20.7144 3.78891 13.1366 8.46276 8.46278C13.1366 3.78893 20.7144 3.78893 25.3883 8.46278Z" fill="black" stroke="#6D6DFF" stroke-width="17.2558" mask="url(#path-3-inside-2_507_38)"/>
</svg>
