<svg width="345" height="201" viewBox="0 0 345 201" fill="none" xmlns="http://www.w3.org/2000/svg">
<path d="M169.313 140.428C140.252 169.488 93.7507 170.476 63.5034 143.393L172.277 34.6193C199.36 64.8665 198.373 111.367 169.313 140.428Z" fill="#6D6DFF" stroke="#6D6DFF" stroke-width="8.6279"/>
<path d="M3.57226 60.5725C32.6326 31.5121 79.1341 30.5245 109.381 57.6073L0.607786 166.381C-26.475 136.134 -25.488 89.6329 3.57226 60.5725Z" fill="#6D6DFF" stroke="#6D6DFF" stroke-width="8.6279"/>
<path d="M149.608 132V84.32H158.312V124.32H178.728V132H149.608ZM200.678 132.768C197.265 132.768 194.15 131.979 191.334 130.4C188.561 128.821 186.342 126.667 184.678 123.936C183.057 121.205 182.246 118.091 182.246 114.592C182.246 111.093 183.057 107.979 184.678 105.248C186.342 102.517 188.561 100.363 191.334 98.784C194.107 97.2053 197.222 96.416 200.678 96.416C204.091 96.416 207.185 97.2053 209.958 98.784C212.731 100.363 214.929 102.517 216.55 105.248C218.214 107.936 219.046 111.051 219.046 114.592C219.046 118.091 218.214 121.205 216.55 123.936C214.886 126.667 212.667 128.821 209.894 130.4C207.121 131.979 204.049 132.768 200.678 132.768ZM200.678 125.088C202.555 125.088 204.198 124.64 205.606 123.744C207.057 122.848 208.187 121.611 208.998 120.032C209.851 118.411 210.278 116.597 210.278 114.592C210.278 112.544 209.851 110.752 208.998 109.216C208.187 107.637 207.057 106.4 205.606 105.504C204.198 104.565 202.555 104.096 200.678 104.096C198.758 104.096 197.073 104.565 195.622 105.504C194.171 106.4 193.019 107.637 192.166 109.216C191.355 110.752 190.95 112.544 190.95 114.592C190.95 116.597 191.355 118.411 192.166 120.032C193.019 121.611 194.171 122.848 195.622 123.744C197.073 124.64 198.758 125.088 200.678 125.088ZM233.547 132L221.579 97.184H230.411L239.179 123.616L236.107 123.552L245.451 97.184H252.875L262.155 123.552L259.083 123.616L267.851 97.184H276.683L264.715 132H257.227L247.755 104.416H250.571L240.971 132H233.547ZM285.311 132V104.672H279.167V97.184H285.311V96.032C285.311 93.3867 285.844 91.1467 286.911 89.312C288.02 87.4347 289.556 86.0053 291.519 85.024C293.482 84.0427 295.807 83.552 298.495 83.552C299.007 83.552 299.562 83.5947 300.159 83.68C300.799 83.7227 301.332 83.7867 301.759 83.872V91.104C301.332 91.0187 300.927 90.976 300.543 90.976C300.202 90.9333 299.882 90.912 299.583 90.912C297.706 90.912 296.255 91.3387 295.231 92.192C294.207 93.0027 293.695 94.2827 293.695 96.032V97.184H308.927V104.672H293.695V132H285.311ZM305.791 132V97.184H314.239V132H305.791ZM337.089 132.384C333.163 132.384 330.113 131.317 327.937 129.184C325.803 127.008 324.737 123.957 324.737 120.032V104.672H318.721V97.184H319.361C321.067 97.184 322.39 96.736 323.329 95.84C324.267 94.944 324.737 93.6427 324.737 91.936V89.248H333.121V97.184H341.121V104.672H333.121V119.584C333.121 120.736 333.313 121.717 333.697 122.528C334.123 123.339 334.763 123.957 335.617 124.384C336.513 124.811 337.643 125.024 339.009 125.024C339.307 125.024 339.649 125.003 340.033 124.96C340.459 124.917 340.865 124.875 341.249 124.832V132C340.651 132.085 339.969 132.171 339.201 132.256C338.433 132.341 337.729 132.384 337.089 132.384Z" fill="white"/>
</svg>
